<?xml version="1.0" standalone="yes"?>
<svg xmlns="http://www.w3.org/2000/svg" width="4064" height="4608" >
<path style="fill:#ffffff; stroke:none;" d="M0 0L0 4608L4064 4608L4064 0L0 0z"/>
<path style="fill:#014d9d; stroke:none;" d="M851 877L1881 877L1860.6 978L1820.2 1179L1696.6 1792L1388 3316L2092 3316L2223 3316C2287.54 3316 2357.16 3313.53 2413 3276.48C2531.89 3197.61 2536.97 3046.43 2558.08 2919C2590.89 2720.89 2624.88 2522.86 2659.25 2325C2675.91 2229.1 2694.73 2132.56 2707 2036L2710 2037L2721.42 1972L2749.25 1811L2830.08 1338L2882.42 1033L2900.41 929L2909 877L3502 877C3536.66 877 3571.34 876.592 3606 877.004C3670.39 877.769 3734.71 874.597 3791 838.947C3851.19 800.83 3891.49 737.945 3910.25 670C3920.66 632.332 3925.49 592.436 3932.42 554C3951.44 448.61 3971.42 343.393 3990.42 238C3999.27 188.971 4008.58 140.028 4017.42 91C4021.3 69.4844 4028.06 46.8418 4029 25C3831.09 25 3632.79 21.6538 3435 24.0039C3390.32 24.5347 3345.62 26.8926 3301 27.9854C3161.39 31.4053 3021.65 27.3447 2882 29.0039C2552.22 32.9224 2222.02 32 1892 32L1357 32C1260.78 32 1160.28 21.2759 1078 82.4785C1028.85 119.041 995.228 173.871 977.72 232C967.442 266.125 962.584 302.088 955.6 337C930.762 461.166 906.707 585.544 883.389 710C876.572 746.381 869.258 782.705 862 819C858.197 838.02 852.529 857.661 851 877z"/>
<path style="fill:#01b1eb; stroke:none;" d="M1124 56L1125 57L1124 56M4021 68L4022 69L4021 68M3998 193L3999 194L3998 193M3970 346L3971 347L3970 346z"/>
<path style="fill:#0101ff; stroke:none;" d="M3959 406L3960 407L3959 406M933 450L934 451L933 450z"/>
<path style="fill:#01b1eb; stroke:none;" d="M912 559L913 560L912 559z"/>
<path style="fill:#0101ff; stroke:none;" d="M3925 591L3926 592L3925 591M3908 675L3909 676L3908 675z"/>
<path style="fill:#01b1eb; stroke:none;" d="M1878 889L1879 890L1878 889z"/>
<path style="fill:#0101ff; stroke:none;" d="M1842 1068L1843 1069L1842 1068M2864 1136L2865 1137L2864 1136z"/>
<path style="fill:#01b1eb; stroke:none;" d="M2707 2036C2677.99 2189.99 2656.57 2345.59 2629.75 2500C2600.04 2671.04 2567.03 2842.18 2542.27 3014C2529.77 3100.76 2511.12 3190.86 2443 3252.17C2428.35 3265.35 2412.69 3277.38 2395 3286.25C2389.26 3289.12 2382.57 3294 2376 3294C2371.23 3298.61 2363.23 3300.07 2357 3302.02C2341.84 3306.79 2326.66 3310.53 2311 3313.25C2246.58 3324.44 2178.28 3318 2113 3318L1386 3318C1391.46 3301.88 1393.26 3283.7 1396.6 3267L1416.45 3168C1438.26 3058.98 1460.4 2950.03 1482.2 2841C1545.01 2526.88 1609.57 2213.1 1672.4 1899C1696.56 1778.23 1722.2 1657.77 1746.4 1537C1752.81 1504.98 1759.38 1472.98 1766 1441C1767.77 1432.47 1775.65 1413.45 1772.36 1405.27C1769.87 1399.08 1752.82 1394.37 1747 1391.69C1723.63 1380.96 1700.41 1369.91 1677 1359.23C1577.09 1313.65 1473.16 1274.83 1368 1243.28C1166.43 1182.8 950.032 1139.46 739 1153.91C707.627 1156.06 676.263 1157.3 645 1161.29C541.624 1174.48 438.61 1208.19 349 1261.6C304.242 1288.29 264.999 1320.51 227 1355.91C177.096 1402.4 136.906 1459.34 107.781 1521C-31.1298 1815.08 52.8044 2156.58 172.576 2442C195.298 2496.15 219.491 2549.48 245.753 2602C279.197 2668.89 316.118 2733.9 354.6 2798C535.454 3099.27 769.579 3366.33 1026 3605.09C1416.54 3968.74 1870.04 4271.98 2375 4451.69C2708.75 4570.48 3096.42 4676.05 3438 4525.14C3510.52 4493.1 3577.74 4450.11 3638 4398.57C3677.7 4364.62 3706.68 4322.39 3731.86 4277C3784.42 4182.24 3815.65 4076.09 3823.09 3968C3833.1 3822.64 3809.2 3677.55 3768.42 3538C3714.21 3352.45 3629.38 3176.79 3532.58 3010C3482.35 2923.45 3427.53 2839.36 3369.29 2758C3295.36 2654.72 3215.94 2555.55 3132.28 2460C3037.57 2351.83 2936.88 2249.29 2833 2149.96C2805.38 2123.55 2776.78 2098.2 2749 2071.96C2737.54 2061.15 2721.99 2041.09 2707 2036z"/>
<path style="fill:#01d9fc; stroke:none;" d="M661 1159L662 1160L661 1159M1010 1165L1011 1166L1010 1165M601 1168L602 1169L601 1168M543 1181L544 1182L543 1181z"/>
<path style="fill:#0101ff; stroke:none;" d="M1819 1182L1820 1183L1819 1182z"/>
<path style="fill:#014d9d; stroke:none;" d="M1184 1195L1185 1196L1184 1195z"/>
<path style="fill:#01d9fc; stroke:none;" d="M1202 1199L1203 1200L1202 1199M467 1205L468 1206L467 1205z"/>
<path style="fill:#014d9d; stroke:none;" d="M449 1212L450 1213L449 1212z"/>
<path style="fill:#01d9fc; stroke:none;" d="M1276 1217L1277 1218L1276 1217z"/>
<path style="fill:#0101ff; stroke:none;" d="M2845 1247L2846 1248L2845 1247z"/>
<path style="fill:#01d9fc; stroke:none;" d="M365 1252L366 1253L365 1252M1412 1257L1413 1258L1412 1257M1491 1284L1492 1285L1491 1284M299 1294L300 1295L299 1294z"/>
<path style="fill:#0101ff; stroke:none;" d="M1555 1308L1556 1309L1555 1308z"/>
<path style="fill:#01d9fc; stroke:none;" d="M278 1310L279 1311L278 1310M267 1319L268 1320L267 1319M1661 1352L1662 1353L1661 1352M1727 1382L1728 1383L1727 1382M1729 1383L1730 1384L1729 1383M193 1390L194 1391L193 1390M1748 1392L1749 1393L1748 1392M1769 1402L1770 1403L1769 1402z"/>
<path style="fill:#01b1eb; stroke:none;" d="M2816 1417L2817 1418L2816 1417z"/>
<path style="fill:#01d9fc; stroke:none;" d="M164 1426L165 1427L164 1426M1766 1438L1767 1439L1766 1438M152 1443L153 1444L152 1443z"/>
<path style="fill:#01b1eb; stroke:none;" d="M1760 1475L1761 1476L1760 1475M1759 1480L1760 1481L1759 1480z"/>
<path style="fill:#01d9fc; stroke:none;" d="M1750 1516L1751 1517L1750 1516M1749 1521L1750 1522L1749 1521z"/>
<path style="fill:#0101ff; stroke:none;" d="M2794 1546L2795 1547L2794 1546z"/>
<path style="fill:#01d9fc; stroke:none;" d="M85 1573L86 1574L85 1573M70 1616L71 1617L70 1616M69 1619L70 1620L69 1619M1723 1648L1724 1649L1723 1648z"/>
<path style="fill:#0101ff; stroke:none;" d="M2765 1716L2766 1717L2765 1716z"/>
<path style="fill:#01d9fc; stroke:none;" d="M44 1731L45 1732L44 1731M38 1787L39 1788L38 1787z"/>
<path style="fill:#014d9d; stroke:none;" d="M36 1831L37 1832L36 1831z"/>
<path style="fill:#01d9fc; stroke:none;" d="M1685 1834L1686 1835L1685 1834M1676 1878L1677 1879L1676 1878M36 1885L37 1886L36 1885z"/>
<path style="fill:#01b1eb; stroke:none;" d="M1674 1901L1675 1902L1674 1901z"/>
<path style="fill:#01d9fc; stroke:none;" d="M37 1907L38 1908L37 1907M1664 1937L1665 1938L1664 1937M1661 1952L1662 1953L1661 1952z"/>
<path style="fill:#0101ff; stroke:none;" d="M2717 1994L2718 1995L2717 1994z"/>
<path style="fill:#01d9fc; stroke:none;" d="M1650 2006L1651 2007L1650 2006M1647 2021L1648 2022L1647 2021M49 2027L50 2028L49 2027z"/>
<path style="fill:#0101ff; stroke:none;" d="M1645 2044L1646 2045L1645 2044z"/>
<path style="fill:#01d9fc; stroke:none;" d="M2740 2064L2741 2065L2740 2064M2741 2065L2742 2066L2741 2065M2751 2074L2752 2075L2751 2074M2752 2075L2753 2076L2752 2075M59 2085L60 2086L59 2085M2773 2094L2774 2095L2773 2094M2788 2108L2789 2109L2788 2108M2789 2109L2790 2110L2789 2109M2804 2123L2805 2124L2804 2123z"/>
<path style="fill:#0101ff; stroke:none;" d="M2820 2138L2821 2139L2820 2138z"/>
<path style="fill:#01d9fc; stroke:none;" d="M1615 2179L1616 2180L1615 2179M2866 2182L2867 2183L2866 2182M2867 2183L2868 2184L2867 2183z"/>
<path style="fill:#0101ff; stroke:none;" d="M1616 2187L1617 2188L1616 2187z"/>
<path style="fill:#01d9fc; stroke:none;" d="M92 2219L93 2220L92 2219M1601 2248L1602 2249L1601 2248M102 2252L103 2253L102 2252M2937 2252L2938 2253L2937 2252M2942 2257L2943 2258L2942 2257M2946 2261L2947 2262L2946 2261M2948 2263L2949 2264L2948 2263M108 2271L109 2272L108 2271M1589 2307L1590 2308L1589 2307M122 2312L123 2313L122 2312M1587 2317L1588 2318L1587 2317M1586 2322L1587 2323L1586 2322M1585 2327L1586 2328L1585 2327z"/>
<path style="fill:#0101ff; stroke:none;" d="M1584 2332L1585 2333L1584 2332z"/>
<path style="fill:#01d9fc; stroke:none;" d="M3032 2350L3033 2351L3032 2350M150 2387L151 2388L150 2387M3067 2388L3068 2389L3067 2388M156 2402L157 2403L156 2402M158 2407L159 2408L158 2407M172 2441L173 2442L172 2441M1559 2456L1560 2457L1559 2456M3131 2459L3132 2460L3131 2459M180 2460L181 2461L180 2460M1558 2461L1559 2462L1558 2461M3145 2475L3146 2476L3145 2475M3201 2541L3202 2542L3201 2541M222 2554L223 2555L222 2554M1534 2580L1535 2581L1534 2580M1531 2595L1532 2596L1531 2595M3246 2596L3247 2597L3246 2596M1528 2610L1529 2611L1528 2610M258 2626L259 2627L258 2626M1524 2630L1525 2631L1524 2630M3283 2643L3284 2644L3283 2643M3290 2652L3291 2653L3290 2652M277 2662L278 2663L277 2662M3325 2698L3326 2699L3325 2698M3328 2702L3329 2703L3328 2702M3350 2732L3351 2733L3350 2732M325 2748L326 2749L325 2748M3363 2750L3364 2751L3363 2750M342 2777L343 2778L342 2777M1494 2779L1495 2780L1494 2779M345 2782L346 2783L345 2782M1492 2789L1493 2790L1492 2789M3392 2791L3393 2792L3392 2791M351 2792L352 2793L351 2792M1491 2794L1492 2795L1491 2794M3410 2817L3411 2818L3410 2817z"/>
<path style="fill:#01b1eb; stroke:none;" d="M1488 2818L1489 2819L1488 2818z"/>
<path style="fill:#01d9fc; stroke:none;" d="M3412 2820L3413 2821L3412 2820M3414 2823L3415 2824L3414 2823M3416 2826L3417 2827L3416 2826M390 2855L391 2856L390 2855M3448 2874L3449 2875L3448 2874M3473 2913L3474 2914L3473 2913z"/>
<path style="fill:#01b1eb; stroke:none;" d="M1468 2917L1469 2918L1468 2917z"/>
<path style="fill:#01d9fc; stroke:none;" d="M1463 2933L1464 2934L1463 2933M1458 2958L1459 2959L1458 2958M1454 2978L1455 2979L1454 2978M480 2989L481 2990L480 2989M1451 2993L1452 2994L1451 2993M3528 3003L3529 3004L3528 3003z"/>
<path style="fill:#0101ff; stroke:none;" d="M516 3039L517 3040L516 3039z"/>
<path style="fill:#01d9fc; stroke:none;" d="M3560 3059L3561 3060L3560 3059M3565 3068L3566 3069L3565 3068M3582 3099L3583 3100L3582 3099M3590 3114L3591 3115L3590 3114M3598 3129L3599 3130L3598 3129M3614 3160L3615 3161L3614 3160M3627 3186L3628 3187L3627 3186M635 3192L636 3193L635 3192M3630 3192L3631 3193L3630 3192M650 3210L651 3211L650 3210M1407 3212L1408 3213L1407 3212M1406 3217L1407 3218L1406 3217M3664 3263L3665 3264L3664 3263z"/>
<path style="fill:#010101; stroke:none;" d="M2384 3291L2385 3292L2384 3291M2382 3292L2383 3293L2382 3292M2379.67 3293.33L2380.33 3293.67L2379.67 3293.33M2377 3294L2378 3295L2377 3294z"/>
<path style="fill:#01d9fc; stroke:none;" d="M723 3295L724 3296L723 3295z"/>
<path style="fill:#010101; stroke:none;" d="M2374.67 3295.33L2375.33 3295.67L2374.67 3295.33M2371 3296L2371 3297L2374 3297L2371 3296M2369.67 3297.33L2370.33 3297.67L2369.67 3297.33M2366.67 3298.33L2367.33 3298.67L2366.67 3298.33M2363.67 3299.33L2364.33 3299.67L2363.67 3299.33M2359 3300L2359 3301L2363 3301L2359 3300M2356 3301L2356 3302L2359 3302L2356 3301M2353 3302L2353 3303L2356 3303L2353 3302M2350 3303L2350 3304L2353 3304L2350 3303z"/>
<path style="fill:#01d9fc; stroke:none;" d="M731 3304L732 3305L731 3304z"/>
<path style="fill:#010101; stroke:none;" d="M2346 3304L2346 3305L2350 3305L2346 3304z"/>
<path style="fill:#01d9fc; stroke:none;" d="M738 3312L739 3313L738 3312M3691 3324L3692 3325L3691 3324M3707 3363L3708 3364L3707 3363M3709 3368L3710 3369L3709 3368M3711 3373L3712 3374L3711 3373M3713 3378L3714 3379L3713 3378M815 3396L816 3397L815 3396M837 3419L838 3420L837 3419M3734 3434L3735 3435L3734 3434M862 3445L863 3446L862 3445M3740 3451L3741 3452L3740 3451M940 3523L941 3524L940 3523M994 3575L995 3576L994 3575M1008 3588L1009 3589L1008 3588M1023 3602L1024 3603L1023 3602M3786 3604L3787 3605L3786 3604M1036 3614L1037 3615L1036 3614M3797 3652L3798 3653L3797 3652M1088 3662L1089 3663L1088 3662z"/>
<path style="fill:#0101ff; stroke:none;" d="M1109 3681L1110 3682L1109 3681z"/>
<path style="fill:#01d9fc; stroke:none;" d="M1119 3690L1120 3691L1119 3690M1128 3698L1129 3699L1128 3698M3808 3709L3809 3710L3808 3709M3809 3715L3810 3716L3809 3715M1153 3720L1154 3721L1153 3720M1168 3733L1169 3734L1168 3733M1209 3768L1210 3769L1209 3768M1228 3784L1229 3785L1228 3784M3821 3808L3822 3809L3821 3808z"/>
<path style="fill:#0101ff; stroke:none;" d="M1262 3812L1263 3813L1262 3812z"/>
<path style="fill:#01d9fc; stroke:none;" d="M1298 3841L1299 3842L1298 3841M3824 3850L3825 3851L3824 3850M1340 3874L1341 3875L1340 3874M3825 3880L3825 3883L3826 3883L3825 3880M3824 3948L3825 3949L3824 3948M3820 3997L3821 3998L3820 3997M1567 4038L1568 4039L1567 4038M3814 4039L3815 4040L3814 4039M1570 4040L1571 4041L1570 4040M1573 4042L1574 4043L1573 4042M1576 4044L1577 4045L1576 4044M3812 4050L3813 4051L3812 4050M1645 4089L1646 4090L1645 4089M1675 4108L1676 4109L1675 4108M1683 4113L1684 4114L1683 4113z"/>
<path style="fill:#014d9d; stroke:none;" d="M3795 4123L3796 4124L3795 4123z"/>
<path style="fill:#01d9fc; stroke:none;" d="M3792 4133L3793 4134L3792 4133M1732 4143L1733 4144L1732 4143M1737 4146L1738 4147L1737 4146M3784 4158L3785 4159L3784 4158M3783 4161L3784 4162L3783 4161M1786 4175L1787 4176L1786 4175M1960 4270L1961 4271L1960 4270M3732 4275L3733 4276L3732 4275M3721 4294L3722 4295L3721 4294M2032 4306L2033 4307L2032 4306M2034 4307L2035 4308L2034 4307M2036 4308L2037 4309L2036 4308M3711 4310L3712 4311L3711 4310M2057 4318L2058 4319L2057 4318M2078 4328L2079 4329L2078 4328M2146 4359L2147 4360L2146 4359M2220 4391L2221 4392L2220 4391M2284 4417L2285 4418L2284 4417M2307 4426L2308 4427L2307 4426M2320 4431L2321 4432L2320 4431M2349 4442L2350 4443L2349 4442M2377 4452L2378 4453L2377 4452M2490 4491L2491 4492L2490 4491M2496 4493L2497 4494L2496 4493M3490 4499L3491 4500L3490 4499M2583 4520L2584 4521L2583 4520M2590 4522L2591 4523L2590 4522M2604 4526L2605 4527L2604 4526M3417 4533L3418 4534L3417 4533M3407 4537L3408 4538L3407 4537M2671 4544L2672 4545L2671 4544M2675 4545L2676 4546L2675 4545M2699 4551L2700 4552L2699 4551M2725 4557L2726 4558L2725 4557M3329 4563L3330 4564L3329 4563z"/>
<path style="fill:#0101ff; stroke:none;" d="M2776 4568L2777 4569L2776 4568z"/>
<path style="fill:#01d9fc; stroke:none;" d="M3272 4577L3273 4578L3272 4577M2863 4583L2864 4584L2863 4583z"/>
</svg>
